# This file uses centimeters as units for non-parametric coordinates.

mtllib CurvedGrave_Broken.mtl
g default
v -49.149124 1.420587 17.201801
v 49.169189 1.420587 17.201801
v -49.149124 7.378993 17.201801
v 49.169189 7.378993 13.642270
v -45.802177 7.378993 -13.579426
v 49.169189 7.378993 -17.201801
v -49.149124 1.420587 -17.201801
v 49.169189 1.420587 -17.201801
v -41.935368 6.623847 7.871631
v 41.937466 6.523267 7.926288
v -41.937466 6.523267 -7.926288
v 41.937466 6.523267 -7.926288
v -5.353562 6.523267 -7.926288
v -5.351462 6.623847 7.871631
v 7.594044 6.523267 -7.926288
v 7.594044 6.523267 7.926288
v -41.935368 10.884322 7.871631
v -5.902109 13.120435 7.871631
v 8.035953 12.996594 7.926288
v 41.937466 10.783742 7.926288
v 41.937466 10.783742 -7.926288
v 8.028950 12.996594 -7.926288
v -5.912568 13.019855 -7.926288
v -41.937466 10.783742 -7.926288
vt 0.086067 0.018143
vt 0.460531 0.018143
vt 0.460531 0.082997
vt 0.124810 0.082997
vt 0.087084 0.094324
vt 0.461549 0.094324
vt 0.461549 0.159178
vt 0.126511 0.159178
vt 0.641158 0.989704
vt 0.468612 0.989704
vt 0.468612 0.943331
vt 0.641158 0.943331
vt 0.898738 0.992618
vt 0.726786 0.991523
vt 0.726786 0.945150
vt 0.898738 0.946245
vt 0.092390 0.967936
vt 0.120421 0.193696
vt 0.363313 0.193696
vt 0.334788 0.941580
vt 0.008816 0.205050
vt 0.008816 0.006617
vt 0.078252 0.006617
vt 0.078252 0.205050
vt 0.643370 0.935234
vt 0.471418 0.935257
vt 0.471418 0.537061
vt 0.643370 0.537038
vt 0.471418 0.396133
vt 0.643965 0.396133
vt 0.471418 0.022324
vt 0.643965 0.022324
vt 0.904716 0.935257
vt 0.732764 0.935234
vt 0.732764 0.543032
vt 0.904716 0.543145
vt 0.732169 0.391323
vt 0.904716 0.391400
vt 0.732169 0.022324
vt 0.904716 0.022324
vt 0.003187 0.981684
vt 0.003187 0.263424
vt 0.075553 0.263424
vt 0.075553 0.981684
vt 0.372380 0.968978
vt 0.372380 0.275169
vt 0.432145 0.275169
vt 0.432145 0.993429
vt 0.986913 0.543032
vt 0.962574 0.935234
vt 0.916201 0.935234
vt 0.916201 0.537038
vt 0.915106 0.396133
vt 0.985565 0.391323
vt 0.915106 0.022324
vt 0.961479 0.022324
vt 0.651117 0.391400
vt 0.675203 0.022324
vt 0.721576 0.022324
vt 0.721576 0.396133
vt 0.650864 0.543145
vt 0.721576 0.537061
vt 0.721576 0.935257
vt 0.675203 0.935257
vn 0.000000 0.000000 1.000000
vn 0.000000 0.000000 1.000000
vn 0.000000 0.000000 1.000000
vn 0.000000 0.000000 1.000000
vn 0.000000 1.000000 0.000000
vn 0.000000 1.000000 0.000000
vn 0.000000 1.000000 0.000000
vn 0.000000 1.000000 0.000000
vn 0.000000 0.000000 -1.000000
vn 0.000000 0.000000 -1.000000
vn 0.000000 0.000000 -1.000000
vn 0.000000 0.000000 -1.000000
vn 0.000000 -1.000000 0.000000
vn 0.000000 -1.000000 0.000000
vn 0.000000 -1.000000 0.000000
vn 0.000000 -1.000000 0.000000
vn 1.000000 0.000000 0.000000
vn 1.000000 0.000000 0.000000
vn 1.000000 0.000000 0.000000
vn 1.000000 0.000000 0.000000
vn -1.000000 0.000000 0.000000
vn -1.000000 0.000000 0.000000
vn -1.000000 0.000000 0.000000
vn -1.000000 0.000000 0.000000
vn 0.000000 -1.000000 0.000000
vn 0.000000 -1.000000 0.000000
vn 0.000000 -1.000000 0.000000
vn 0.000000 -1.000000 0.000000
vn 0.000000 -1.000000 0.000000
vn 0.000000 -1.000000 0.000000
vn 0.000000 -1.000000 0.000000
vn 0.000000 -1.000000 0.000000
vn 0.000000 -1.000000 0.000000
vn 0.000000 -1.000000 0.000000
vn 0.000000 -1.000000 0.000000
vn 0.000000 -1.000000 0.000000
vn 0.000000 0.000000 1.000000
vn 0.000000 0.000000 1.000000
vn 0.000000 0.000000 1.000000
vn 0.000000 0.000000 1.000000
vn 0.000000 0.000000 1.000000
vn 0.003753 -0.000196 0.999993
vn -0.004066 -0.000034 0.999992
vn -0.004066 -0.000034 0.999992
vn 0.003753 -0.000196 0.999993
vn 0.000000 0.000000 1.000000
vn 0.000000 0.000000 1.000000
vn 0.000000 0.000000 1.000000
vn 1.000000 0.000000 0.000000
vn 1.000000 0.000000 0.000000
vn 1.000000 0.000000 0.000000
vn 1.000000 0.000000 0.000000
vn 0.000000 0.000000 -1.000000
vn 0.000000 0.000000 -1.000000
vn 0.000000 0.000000 -1.000000
vn 0.000000 0.000000 -1.000000
vn 0.000000 0.000000 -1.000000
vn 0.000000 0.000000 -1.000000
vn 0.000000 0.000000 -1.000000
vn 0.000000 0.000000 -1.000000
vn 0.000000 0.000000 -1.000000
vn 0.000000 0.000000 -1.000000
vn 0.000000 0.000000 -1.000000
vn 0.000000 0.000000 -1.000000
vn -1.000000 0.000000 0.000000
vn -1.000000 0.000000 0.000000
vn -1.000000 0.000000 0.000133
vn -1.000000 0.000000 0.000133
vn -0.061944 0.998060 -0.006330
vn -0.061944 0.998060 -0.006330
vn -0.061944 0.998060 -0.006330
vn -0.061944 0.998060 -0.006330
vn 0.005282 0.999981 -0.003181
vn 0.005282 0.999981 -0.003181
vn 0.005282 0.999981 -0.003181
vn 0.005282 0.999981 -0.003181
vn 0.065128 0.997877 -0.000014
vn 0.065128 0.997877 -0.000014
vn 0.065128 0.997877 -0.000014
vn 0.065128 0.997877 -0.000014
s off
g curvedgrave_broken
usemtl initialShadingGroup
f 1/41/1 2/42/2 4/43/3 3/44/4
f 3/17/5 4/18/6 6/19/7 5/20/8
f 5/45/9 6/46/10 8/47/11 7/48/12
f 7/21/13 8/22/14 2/23/15 1/24/16
f 2/1/17 8/2/18 6/3/19 4/4/20
f 7/5/21 1/6/22 3/7/23 5/8/24
f 9/25/25 11/26/26 13/27/27 14/28/28
f 12/31/29 10/32/30 16/30/31 15/29/32
f 15/29/33 16/30/34 14/28/35 13/27/36
f 18/49/37 17/50/38 9/51/39 14/52/40
f 14/52/41 16/53/42 19/54/43 18/49/44
f 16/53/45 10/55/46 20/56/47 19/54/48
f 10/9/49 12/10/50 21/11/51 20/12/52
f 22/57/53 21/58/54 12/59/55 15/60/56
f 23/61/57 22/57/58 15/60/59 13/62/60
f 13/62/61 11/63/62 24/64/63 23/61/64
f 11/13/65 9/14/66 17/15/67 24/16/68
f 24/33/69 17/34/70 18/35/71 23/36/72
f 23/36/73 18/35/74 19/37/75 22/38/76
f 22/38/77 19/37/78 20/39/79 21/40/80
