# This file uses centimeters as units for non-parametric coordinates.

mtllib smallgrave_broken.mtl
g default
v -35.490067 4.006139 6.512583
v 38.851177 4.006139 8.564026
v -35.490067 4.006144 -6.198509
v 38.851177 4.006144 -4.147065
v -25.778250 4.006144 -5.930511
v -25.778250 4.006144 6.780580
v 16.059399 4.006144 -4.776004
v 16.059399 4.006144 7.935088
v 26.857130 4.006139 -4.478040
v 26.857130 4.006139 8.233051
v 1.891430 4.006144 -5.166967
v 1.891430 4.006144 7.544123
v -25.949228 15.634803 6.787180
v -35.865200 15.257535 6.512583
v -35.865200 15.257535 -6.198509
v -25.949228 15.634803 -5.923912
v 1.587436 13.206641 -5.141563
v 15.782368 18.544683 -4.740968
v 26.600649 15.784680 -4.435666
v 38.617531 15.257526 -4.096539
v 38.617531 15.257535 8.614552
v 26.600649 15.784690 8.275425
v 15.782368 18.544668 7.970123
v 1.587436 13.206632 7.569530
vt 0.125047 0.266798
vt 0.231114 0.269394
vt 0.229391 0.397005
vt 0.121135 0.394535
vt 0.118409 0.479744
vt 0.221816 0.475460
vt 0.223599 0.607481
vt 0.122321 0.607481
vt 0.102765 0.049772
vt 0.209260 0.046817
vt 0.215651 0.190125
vt 0.109156 0.193080
vt 0.914826 0.620781
vt 0.925981 0.731536
vt 0.838200 0.732090
vt 0.827045 0.621335
vt 0.669298 0.734908
vt 0.668996 0.632322
vt 0.753273 0.632073
vt 0.753576 0.734660
vt 0.512148 0.607481
vt 0.508978 0.452044
vt 0.512672 0.038401
vt 0.519063 0.181709
vt 0.506960 0.419639
vt 0.510024 0.269394
vt 0.659896 0.607481
vt 0.657007 0.456848
vt 0.769824 0.473759
vt 0.772499 0.607481
vt 0.674422 0.177399
vt 0.668031 0.034091
vt 0.786434 0.030806
vt 0.792824 0.174114
vt 0.659733 0.417430
vt 0.662622 0.266798
vt 0.775224 0.266798
vt 0.772549 0.400520
vt 0.895140 0.479744
vt 0.897576 0.607481
vt 0.917954 0.027158
vt 0.924345 0.170466
vt 0.900302 0.266798
vt 0.897865 0.394535
vt 0.162884 0.786998
vt 0.498638 0.776614
vt 0.498638 0.945336
vt 0.162884 0.955719
vt 0.041978 0.959364
vt 0.041978 0.790643
vt 0.671716 0.940018
vt 0.671716 0.771296
vt 0.803625 0.767243
vt 0.803625 0.935965
vt 0.950145 0.931464
vt 0.950145 0.762741
vn -0.027615 -0.000948 0.999618
vn -0.027956 -0.001836 0.999608
vn -0.027949 -0.001818 0.999608
vn -0.027615 -0.000948 0.999618
vn 0.027616 0.000947 -0.999618
vn 0.027949 0.001818 -0.999608
vn 0.027956 0.001836 -0.999608
vn 0.027616 0.000947 -0.999618
vn 0.000000 -1.000000 0.000000
vn 0.000000 -1.000000 0.000000
vn 0.000000 -1.000000 0.000000
vn 0.000000 -1.000000 0.000000
vn 0.999784 0.020762 0.000000
vn 0.999784 0.020762 0.000000
vn 0.999784 0.020762 0.000000
vn 0.999784 0.020762 0.000000
vn -0.999445 -0.033323 0.000000
vn -0.999445 -0.033323 0.000000
vn -0.999445 -0.033323 0.000000
vn -0.999445 -0.033323 0.000000
vn 0.027785 0.002571 -0.999611
vn 0.027956 0.001836 -0.999608
vn 0.027949 0.001818 -0.999608
vn 0.027774 0.002585 -0.999611
vn 0.000000 -1.000000 0.000000
vn 0.000000 -1.000000 0.000000
vn 0.000000 -1.000000 0.000000
vn 0.000000 -1.000000 0.000000
vn -0.027774 -0.002585 0.999611
vn -0.027949 -0.001818 0.999608
vn -0.027956 -0.001836 0.999608
vn -0.027785 -0.002571 0.999611
vn 0.027779 0.003353 -0.999608
vn 0.027786 0.003354 -0.999608
vn 0.028190 0.004013 -0.999595
vn 0.028172 0.004071 -0.999595
vn 0.000000 -1.000000 0.000000
vn 0.000000 -1.000000 0.000000
vn 0.000000 -1.000000 0.000000
vn 0.000000 -1.000000 0.000000
vn -0.027786 -0.003354 0.999608
vn -0.027779 -0.003353 0.999608
vn -0.028172 -0.004071 0.999595
vn -0.028190 -0.004013 0.999595
vn 0.028172 0.004071 -0.999595
vn 0.028190 0.004013 -0.999595
vn 0.027999 0.004628 -0.999597
vn 0.027999 0.004628 -0.999597
vn 0.000000 -1.000000 0.000000
vn 0.000000 -1.000000 0.000000
vn 0.000000 -1.000000 0.000000
vn 0.000000 -1.000000 0.000000
vn -0.028190 -0.004013 0.999595
vn -0.028172 -0.004071 0.999595
vn -0.027999 -0.004628 0.999597
vn -0.027999 -0.004628 0.999597
vn 0.027785 0.002571 -0.999611
vn 0.027774 0.002585 -0.999611
vn 0.027786 0.003354 -0.999608
vn 0.027779 0.003353 -0.999608
vn 0.000000 -1.000000 0.000000
vn 0.000000 -1.000000 0.000000
vn 0.000000 -1.000000 0.000000
vn 0.000000 -1.000000 0.000000
vn -0.027774 -0.002585 0.999611
vn -0.027785 -0.002571 0.999611
vn -0.027779 -0.003353 0.999608
vn -0.027786 -0.003354 0.999608
vn 0.087839 0.996135 0.000000
vn 0.087839 0.996135 0.000000
vn 0.087839 0.996135 0.000000
vn 0.087839 0.996135 0.000000
vn -0.038019 0.999277 0.000000
vn -0.038019 0.999277 0.000000
vn -0.038019 0.999277 0.000000
vn -0.038019 0.999277 0.000000
vn -0.351987 0.936005 0.000001
vn -0.351987 0.936005 0.000001
vn -0.351987 0.936005 0.000001
vn -0.351987 0.936005 0.000001
vn 0.247205 0.968963 0.000000
vn 0.247205 0.968963 0.000000
vn 0.247205 0.968963 0.000000
vn 0.247205 0.968963 0.000000
vn 0.043826 0.999039 -0.000001
vn 0.043826 0.999039 -0.000001
vn 0.043826 0.999039 -0.000001
vn 0.043826 0.999039 -0.000001
s off
g smallgrave_broken:smallgrave_lowpoly
usemtl initialShadingGroup
f 1/1/1 6/2/2 13/3/3 14/4/4
f 15/5/5 16/6/6 5/7/7 3/8/8
f 3/9/9 5/10/10 6/11/11 1/12/12
f 2/13/13 4/14/14 20/15/15 21/16/16
f 3/17/17 1/18/18 14/19/19 15/20/20
f 11/21/21 5/7/22 16/6/23 17/22/24
f 6/11/25 5/10/26 11/23/27 12/24/28
f 24/25/29 13/3/30 6/2/31 12/26/32
f 7/27/33 18/28/34 19/29/35 9/30/36
f 8/31/37 7/32/38 9/33/39 10/34/40
f 23/35/41 8/36/42 10/37/43 22/38/44
f 9/30/45 19/29/46 20/39/47 4/40/48
f 10/34/49 9/33/50 4/41/51 2/42/52
f 22/38/53 10/37/54 2/43/55 21/44/56
f 11/21/57 17/22/58 18/28/59 7/27/60
f 12/24/61 11/23/62 7/32/63 8/31/64
f 24/25/65 12/26/66 8/36/67 23/35/68
f 13/45/69 24/46/70 17/47/71 16/48/72
f 16/48/73 15/49/74 14/50/75 13/45/76
f 18/51/77 17/47/78 24/46/79 23/52/80
f 23/52/81 22/53/82 19/54/83 18/51/84
f 20/55/85 19/54/86 22/53/87 21/56/88
