# This file uses centimeters as units for non-parametric coordinates.

mtllib CurvedGrave_Lowpoly.mtl
g default
v -49.149126 1.420587 17.201801
v 49.169189 1.420587 17.201801
v -49.149126 7.378993 17.201801
v 49.169189 7.378993 17.201801
v -49.149126 7.378993 -17.201801
v 49.169189 7.378993 -17.201801
v -49.149126 1.420587 -17.201801
v 49.169189 1.420587 -17.201801
v -41.937465 6.523267 7.926288
v 41.937465 6.523267 7.926288
v -41.937465 88.789062 7.415340
v 41.937465 88.789062 7.415340
v -41.937465 88.762143 -6.810113
v 41.937465 88.762143 -6.810113
v -41.937465 6.523267 -7.926288
v 41.937465 6.523267 -7.926288
v -36.995880 89.603260 7.415340
v -36.995880 89.576341 -6.810113
v -19.610846 6.523267 -7.926288
v -19.610846 6.523267 7.926288
v 37.752445 89.211696 7.415340
v 37.752445 89.184778 -6.810113
v 20.584070 6.523267 -7.926288
v 20.584070 6.523267 7.926288
v 0.296586 110.136522 -6.810113
v -0.352082 6.523267 -7.926288
v -0.352082 6.523267 7.926288
v 0.393959 110.163441 7.415340
v -29.722853 95.830693 7.415340
v -29.745147 95.803774 -6.810113
v -15.199985 6.523267 -7.926288
v -15.199985 6.523267 7.926288
v -17.644303 98.090252 7.415340
v -17.687138 98.063333 -6.810113
v -11.142067 6.523267 -7.926288
v -11.142067 6.523267 7.926288
v 29.955585 96.420612 7.415340
v 29.940978 96.393693 -6.810113
v 17.442891 6.523267 -7.926288
v 17.634800 6.523267 7.858704
v 19.711153 98.044543 7.415340
v 19.677569 98.017624 -6.810113
v 13.368548 6.523267 -7.926288
v 13.560456 6.523267 7.858704
v -10.104353 108.081379 7.415340
v -10.176434 108.054430 -6.810113
v -5.353562 6.523267 -7.926288
v -5.353562 6.523267 7.926288
v 11.406663 107.880666 7.415340
v 11.346223 107.853717 -6.810113
v 7.594044 6.523267 -7.926288
v 7.594044 6.523267 7.926288
v 41.937465 87.690460 7.926288
v 37.386139 88.104098 7.926288
v 29.880540 95.159158 7.858704
v 19.767734 96.748452 7.858704
v 11.325300 106.374714 7.926288
v 0.378044 108.608784 7.926288
v -10.002960 106.571116 7.926288
v -17.505565 96.793203 7.926288
v -29.412968 94.581839 7.926288
v -36.624950 88.487274 7.926288
v -41.937465 87.690460 7.926288
v -41.937465 87.690460 -7.926288
v -36.624950 88.487274 -7.926288
v -29.434815 94.581839 -7.926288
v -17.547473 96.793203 -7.926288
v -10.073542 106.571116 -7.926288
v 0.282743 108.608784 -7.926288
v 11.266168 106.374714 -7.926288
v 19.542974 96.748452 -7.926288
v 29.674310 95.159158 -7.926288
v 37.386139 88.104098 -7.926288
v 41.937465 87.690460 -7.926288
vt 0.846700 0.488809
vt 0.846700 0.001992
vt 0.876202 0.001992
vt 0.876202 0.488809
vt 0.768977 0.998008
vt 0.768977 0.511191
vt 0.939324 0.511191
vt 0.939324 0.998008
vt 0.904003 0.490089
vt 0.904003 0.003272
vt 0.933506 0.003272
vt 0.933506 0.490089
vt 0.557665 0.998008
vt 0.557665 0.511191
vt 0.728013 0.511191
vt 0.728013 0.998008
vt 0.160292 0.782861
vt 0.160292 0.988769
vt 0.124631 0.988769
vt 0.124631 0.782861
vt 0.202880 0.782861
vt 0.202880 0.988769
vt 0.167219 0.988769
vt 0.167219 0.782861
vt 0.001861 0.001992
vt 0.112410 0.001992
vt 0.028165 0.407832
vt 0.001861 0.403887
vt 0.440689 0.981639
vt 0.440689 0.954719
vt 0.518184 0.954719
vt 0.518184 0.981639
vt 0.424371 0.105568
vt 0.450676 0.101623
vt 0.534920 0.507462
vt 0.424371 0.507462
vt 0.323670 0.983178
vt 0.323670 0.854166
vt 0.415273 0.854166
vt 0.415273 0.983178
vt 0.220290 0.525177
vt 0.310145 0.525177
vt 0.310145 0.985244
vt 0.220290 0.985244
vt 0.117704 0.988769
vt 0.022825 0.988769
vt 0.022825 0.502978
vt 0.117704 0.502978
vt 0.440689 0.915098
vt 0.518184 0.915220
vt 0.486277 0.071446
vt 0.556760 0.507462
vt 0.323670 0.828678
vt 0.415273 0.828678
vt 0.134250 0.001992
vt 0.063875 0.438009
vt 0.440689 0.547519
vt 0.440689 0.524720
vt 0.518184 0.524720
vt 0.518184 0.547519
vt 0.733943 0.507462
vt 0.817137 0.103520
vt 0.839673 0.105568
vt 0.839673 0.507462
vt 0.415273 0.621904
vt 0.323670 0.621904
vt 0.323670 0.498515
vt 0.415273 0.498515
vt 0.394627 0.405935
vt 0.311432 0.001992
vt 0.417162 0.001992
vt 0.417162 0.403887
vt 0.630279 0.507462
vt 0.633422 0.001992
vt 0.687806 0.013054
vt 0.669623 0.507462
vt 0.415273 0.742881
vt 0.323670 0.742881
vt 0.323670 0.696965
vt 0.415273 0.696965
vt 0.211383 0.507462
vt 0.207768 0.001992
vt 0.247113 0.001992
vt 0.265588 0.496400
vt 0.518184 0.751564
vt 0.440689 0.751033
vt 0.440689 0.691041
vt 0.518184 0.691370
vt 0.440689 0.849299
vt 0.518184 0.849532
vt 0.545137 0.060496
vt 0.576853 0.507462
vt 0.323670 0.805230
vt 0.415273 0.805230
vt 0.154342 0.001992
vt 0.122834 0.448958
vt 0.440689 0.808224
vt 0.518184 0.808617
vt 0.582144 0.012081
vt 0.605514 0.507462
vt 0.323670 0.771782
vt 0.415273 0.771782
vt 0.183004 0.001992
vt 0.159982 0.497373
vt 0.518184 0.590073
vt 0.440689 0.589993
vt 0.718390 0.507462
vt 0.778953 0.068587
vt 0.415273 0.640055
vt 0.323670 0.640055
vt 0.356513 0.440867
vt 0.295879 0.001992
vt 0.518184 0.645984
vt 0.440689 0.645801
vt 0.698216 0.507462
vt 0.728788 0.060718
vt 0.415273 0.663598
vt 0.323670 0.663598
vt 0.306440 0.448737
vt 0.275705 0.001992
vt 0.396441 0.411419
vt 0.417162 0.409326
vt 0.357835 0.447113
vt 0.307110 0.455154
vt 0.265991 0.503857
vt 0.211462 0.515160
vt 0.159480 0.504851
vt 0.122147 0.455380
vt 0.062341 0.444192
vt 0.026329 0.413358
vt 0.001861 0.409326
vt 0.025883 0.496403
vt 0.111024 0.496564
vt 0.524264 0.952698
vt 0.524264 0.981639
vt 0.524264 0.913529
vt 0.524264 0.848772
vt 0.544445 0.054207
vt 0.581634 0.004737
vt 0.524264 0.751639
vt 0.524264 0.808056
vt 0.524264 0.691806
vt 0.688202 0.005731
vt 0.729455 0.054434
vt 0.524264 0.591525
vt 0.524264 0.646717
vt 0.524264 0.549514
vt 0.524264 0.524720
vt 0.303818 0.991319
vt 0.223186 0.991471
vn 0.000000 0.000000 1.000000
vn 0.000000 0.000000 1.000000
vn 0.000000 0.000000 1.000000
vn 0.000000 0.000000 1.000000
vn 0.000000 1.000000 0.000000
vn 0.000000 1.000000 0.000000
vn 0.000000 1.000000 0.000000
vn 0.000000 1.000000 0.000000
vn 0.000000 0.000000 -1.000000
vn 0.000000 0.000000 -1.000000
vn 0.000000 0.000000 -1.000000
vn 0.000000 0.000000 -1.000000
vn 0.000000 -1.000000 0.000000
vn 0.000000 -1.000000 0.000000
vn 0.000000 -1.000000 0.000000
vn 0.000000 -1.000000 0.000000
vn 1.000000 0.000000 0.000000
vn 1.000000 0.000000 0.000000
vn 1.000000 0.000000 0.000000
vn 1.000000 0.000000 0.000000
vn -1.000000 0.000000 0.000000
vn -1.000000 0.000000 0.000000
vn -1.000000 0.000000 0.000000
vn -1.000000 0.000000 0.000000
vn 0.000000 0.000000 1.000000
vn 0.000000 0.000000 1.000000
vn -0.001487 0.002761 0.999995
vn -0.000303 0.001926 0.999998
vn -0.162571 0.986695 -0.001868
vn -0.499890 0.866088 -0.001293
vn -0.499677 0.866211 -0.001294
vn -0.162571 0.986695 -0.001868
vn -0.000676 0.004302 -0.999990
vn -0.003447 0.006299 -0.999974
vn 0.000000 0.000000 -1.000000
vn 0.000000 0.000000 -1.000000
vn 0.000000 -1.000000 0.000000
vn 0.000000 -1.000000 0.000000
vn 0.000000 -1.000000 0.000000
vn 0.000000 -1.000000 0.000000
vn 1.000000 0.000000 0.000000
vn 1.000000 0.000000 0.000000
vn 1.000000 0.000000 0.000000
vn 1.000000 0.000000 0.000000
vn -1.000000 0.000000 0.000000
vn -1.000000 0.000000 0.000000
vn -1.000000 0.000000 0.000000
vn -1.000000 0.000000 0.000000
vn -0.499890 0.866088 -0.001293
vn -0.401681 0.915779 -0.001258
vn -0.402344 0.915488 -0.001257
vn -0.499677 0.866211 -0.001294
vn 0.000000 0.000000 -1.000000
vn -0.003447 0.006299 -0.999974
vn -0.009781 0.021107 -0.999729
vn 0.000000 0.000000 -1.000000
vn 0.000000 -1.000000 0.000000
vn 0.000000 -1.000000 0.000000
vn 0.000000 -1.000000 0.000000
vn 0.000000 -1.000000 0.000000
vn -0.001487 0.002761 0.999995
vn 0.000000 0.000000 1.000000
vn 0.000000 0.000000 1.000000
vn -0.004630 0.009870 0.999941
vn 0.537083 0.843527 -0.001858
vn 0.100474 0.994938 -0.001884
vn 0.100474 0.994938 -0.001884
vn 0.536872 0.843662 -0.001858
vn 0.000000 0.000000 -1.000000
vn 0.003762 0.006222 -0.999974
vn 0.000400 0.004175 -0.999991
vn 0.000000 0.000000 -1.000000
vn 0.000000 -1.000000 0.000000
vn 0.000000 -1.000000 0.000000
vn 0.000000 -1.000000 0.000000
vn 0.000000 -1.000000 0.000000
vn -0.002799 0.003302 0.999991
vn -0.004390 0.000749 0.999990
vn 0.000000 0.000000 1.000000
vn 0.000181 0.001886 0.999998
vn 0.000000 0.000000 -1.000000
vn 0.000148 0.016948 -0.999856
vn 0.012286 0.017097 -0.999778
vn 0.000000 0.000000 -1.000000
vn 0.000000 -1.000000 0.000000
vn 0.000000 -1.000000 0.000000
vn 0.000000 -1.000000 0.000000
vn 0.000000 -1.000000 0.000000
vn 0.000067 0.007879 0.999969
vn 0.000000 0.000000 1.000000
vn 0.003753 -0.000196 0.999993
vn 0.007726 0.007571 0.999942
vn 0.008463 0.999962 -0.001900
vn 0.010192 0.999946 -0.001910
vn 0.531276 0.847191 -0.003583
vn 0.530335 0.847780 -0.003582
vn -0.401681 0.915779 -0.001258
vn -0.530838 0.847473 0.000369
vn -0.529449 0.848342 0.000361
vn -0.402344 0.915488 -0.001257
vn 0.000000 0.000000 -1.000000
vn -0.009781 0.021107 -0.999729
vn -0.005607 0.011210 -0.999921
vn 0.000000 0.000000 -1.000000
vn 0.000000 -1.000000 0.000000
vn 0.000000 -1.000000 0.000000
vn 0.000000 -1.000000 0.000000
vn 0.000000 -1.000000 0.000000
vn -0.004630 0.009870 0.999941
vn 0.000000 0.000000 1.000000
vn 0.000000 0.000000 1.000000
vn -0.002263 0.004941 0.999985
vn -0.530838 0.847473 0.000369
vn -0.555809 0.831310 0.000856
vn -0.557793 0.829980 0.000866
vn -0.529449 0.848342 0.000361
vn 0.000000 0.000000 -1.000000
vn -0.005607 0.011210 -0.999921
vn -0.015062 0.019288 -0.999701
vn 0.000000 0.000000 -1.000000
vn 0.000000 -1.000000 0.000000
vn 0.000000 -1.000000 0.000000
vn 0.000000 -1.000000 0.000000
vn 0.000000 -1.000000 0.000000
vn -0.002263 0.004941 0.999985
vn 0.000000 0.000000 1.000000
vn 0.000000 0.000000 1.000000
vn -0.007265 0.009078 0.999932
vn 0.439372 0.898303 -0.002021
vn 0.439404 0.898287 -0.002021
vn 0.537083 0.843527 -0.001858
vn 0.536872 0.843662 -0.001858
vn 0.000000 0.000000 -1.000000
vn 0.011840 0.022634 -0.999674
vn 0.003762 0.006222 -0.999974
vn 0.000000 0.000000 -1.000000
vn 0.000000 -1.000000 0.000000
vn 0.000000 -1.000000 0.000000
vn 0.000000 -1.000000 0.000000
vn 0.000000 -1.000000 0.000000
vn 0.001981 0.010250 0.999946
vn -0.004562 0.000779 0.999989
vn -0.004390 0.000749 0.999990
vn -0.002799 0.003302 0.999991
vn 0.525342 0.850885 -0.003226
vn 0.524922 0.851144 -0.003225
vn 0.439404 0.898287 -0.002021
vn 0.439372 0.898303 -0.002021
vn 0.000000 0.000000 -1.000000
vn 0.005364 0.010622 -0.999929
vn 0.011840 0.022634 -0.999674
vn 0.000000 0.000000 -1.000000
vn 0.000000 -1.000000 0.000000
vn 0.000000 -1.000000 0.000000
vn 0.000000 -1.000000 0.000000
vn 0.000000 -1.000000 0.000000
vn 0.007488 0.003817 0.999965
vn 0.004954 -0.000259 0.999988
vn -0.004562 0.000779 0.999989
vn 0.001981 0.010250 0.999946
vn -0.555809 0.831310 0.000856
vn 0.010192 0.999946 -0.001910
vn 0.008463 0.999962 -0.001900
vn -0.557793 0.829980 0.000866
vn 0.000000 0.000000 -1.000000
vn -0.015062 0.019288 -0.999701
vn 0.000148 0.016948 -0.999856
vn 0.000000 0.000000 -1.000000
vn 0.000000 -1.000000 0.000000
vn 0.000000 -1.000000 0.000000
vn 0.000000 -1.000000 0.000000
vn 0.000000 -1.000000 0.000000
vn -0.007265 0.009078 0.999932
vn 0.000000 0.000000 1.000000
vn 0.000000 0.000000 1.000000
vn 0.000067 0.007879 0.999969
vn 0.530335 0.847780 -0.003582
vn 0.531276 0.847191 -0.003583
vn 0.524922 0.851144 -0.003225
vn 0.525342 0.850885 -0.003226
vn 0.000000 0.000000 -1.000000
vn 0.012286 0.017097 -0.999778
vn 0.005364 0.010622 -0.999929
vn 0.000000 0.000000 -1.000000
vn 0.000000 -1.000000 0.000000
vn 0.000000 -1.000000 0.000000
vn 0.000000 -1.000000 0.000000
vn 0.000000 -1.000000 0.000000
vn 0.007726 0.007571 0.999942
vn 0.003753 -0.000196 0.999993
vn 0.004954 -0.000259 0.999988
vn 0.007488 0.003817 0.999965
vn 0.215750 0.344314 0.913728
vn -0.002799 0.003302 0.999991
vn 0.000181 0.001886 0.999998
vn 0.039678 0.414530 0.909170
vn 0.128033 0.323928 0.937378
vn 0.001981 0.010250 0.999946
vn -0.002799 0.003302 0.999991
vn 0.215750 0.344314 0.913728
vn 0.242600 0.312819 0.918308
vn 0.007488 0.003817 0.999965
vn 0.001981 0.010250 0.999946
vn 0.128033 0.323928 0.937378
vn 0.140643 0.312847 0.939333
vn 0.007726 0.007571 0.999942
vn 0.007488 0.003817 0.999965
vn 0.242600 0.312819 0.918308
vn 0.003176 0.314795 0.949154
vn 0.000067 0.007879 0.999969
vn 0.007726 0.007571 0.999942
vn 0.140643 0.312847 0.939333
vn -0.147004 0.310401 0.939170
vn -0.007265 0.009078 0.999932
vn 0.000067 0.007879 0.999969
vn 0.003176 0.314795 0.949154
vn -0.241300 0.325274 0.914315
vn -0.002263 0.004941 0.999985
vn -0.007265 0.009078 0.999932
vn -0.147004 0.310401 0.939170
vn -0.136892 0.347518 0.927627
vn -0.004630 0.009870 0.999941
vn -0.002263 0.004941 0.999985
vn -0.241300 0.325274 0.914315
vn -0.202882 0.348379 0.915134
vn -0.001487 0.002761 0.999995
vn -0.004630 0.009870 0.999941
vn -0.136892 0.347518 0.927627
vn -0.000303 0.001926 0.999998
vn -0.001487 0.002761 0.999995
vn -0.202882 0.348379 0.915134
vn -0.064292 0.409219 0.910168
vn -1.000000 0.000000 0.000000
vn -1.000000 0.000000 0.000000
vn -1.000000 0.000001 0.000000
vn -1.000000 0.000001 0.000000
vn -0.110739 0.704860 -0.700649
vn -0.350913 0.606404 -0.713537
vn -0.003447 0.006299 -0.999974
vn -0.000676 0.004302 -0.999990
vn -0.009781 0.021107 -0.999729
vn -0.003447 0.006299 -0.999974
vn -0.350913 0.606404 -0.713537
vn -0.251023 0.619564 -0.743725
vn -0.005607 0.011210 -0.999921
vn -0.009781 0.021107 -0.999729
vn -0.251023 0.619564 -0.743725
vn -0.408681 0.567686 -0.714641
vn -0.015062 0.019288 -0.999701
vn -0.005607 0.011210 -0.999921
vn -0.408681 0.567686 -0.714641
vn -0.292125 0.565897 -0.770988
vn 0.000148 0.016948 -0.999856
vn -0.015062 0.019288 -0.999701
vn -0.292125 0.565897 -0.770988
vn 0.005860 0.593480 -0.804828
vn 0.012286 0.017097 -0.999778
vn 0.000148 0.016948 -0.999856
vn 0.005860 0.593480 -0.804828
vn 0.281330 0.570630 -0.771515
vn 0.005364 0.010622 -0.999929
vn 0.012286 0.017097 -0.999778
vn 0.281330 0.570630 -0.771515
vn 0.397652 0.572470 -0.717043
vn 0.011840 0.022634 -0.999674
vn 0.005364 0.010622 -0.999929
vn 0.397652 0.572470 -0.717043
vn 0.270196 0.614988 -0.740799
vn 0.003762 0.006222 -0.999974
vn 0.011840 0.022634 -0.999674
vn 0.270196 0.614988 -0.740799
vn 0.379119 0.595722 -0.708084
vn 0.000400 0.004175 -0.999991
vn 0.003762 0.006222 -0.999974
vn 0.379119 0.595722 -0.708084
vn 0.068208 0.712593 -0.698254
vn 1.000000 0.000000 0.000000
vn 1.000000 0.000000 0.000000
vn 1.000000 0.000002 0.000000
vn 1.000000 0.000002 0.000000
s off
g CurvedGravesone_Lowpoly
usemtl lambert2SG
f 1/1/1 2/2/2 4/3/3 3/4/4
f 3/5/5 4/6/6 6/7/7 5/8/8
f 5/9/9 6/10/10 8/11/11 7/12/12
f 7/13/13 8/14/14 2/15/15 1/16/16
f 2/17/17 8/18/18 6/19/19 4/20/20
f 7/21/21 1/22/22 3/23/23 5/24/24
f 9/25/25 20/26/26 62/27/27 63/28/28
f 11/29/29 17/30/30 18/31/31 13/32/32
f 64/33/33 65/34/34 19/35/35 15/36/36
f 15/37/37 19/38/38 20/39/39 9/40/40
f 10/41/41 16/42/42 74/43/43 53/44/44
f 15/45/45 9/46/46 63/47/47 64/48/48
f 17/30/49 29/49/50 30/50/51 18/31/52
f 19/35/53 65/34/54 66/51/55 31/52/56
f 20/39/57 19/38/58 31/53/59 32/54/60
f 62/27/61 20/26/62 32/55/63 61/56/64
f 21/57/65 12/58/66 14/59/67 22/60/68
f 23/61/69 73/62/70 74/63/71 16/64/72
f 24/65/73 23/66/74 16/67/75 10/68/76
f 54/69/77 24/70/78 10/71/79 53/72/80
f 26/73/81 69/74/82 70/75/83 51/76/84
f 27/77/85 26/78/86 51/79/87 52/80/88
f 58/81/89 27/82/90 52/83/91 57/84/92
f 25/85/93 28/86/94 49/87/95 50/88/96
f 29/49/97 33/89/98 34/90/99 30/50/100
f 31/52/101 66/51/102 67/91/103 35/92/104
f 32/54/105 31/53/106 35/93/107 36/94/108
f 61/56/109 32/55/110 36/95/111 60/96/112
f 33/89/113 45/97/114 46/98/115 34/90/116
f 35/92/117 67/91/118 68/99/119 47/100/120
f 36/94/121 35/93/122 47/101/123 48/102/124
f 60/96/125 36/95/126 48/103/127 59/104/128
f 38/105/129 37/106/130 21/57/131 22/60/132
f 39/107/133 72/108/134 73/62/135 23/61/136
f 40/109/137 39/110/138 23/66/139 24/65/140
f 55/111/141 40/112/142 24/70/143 54/69/144
f 42/113/145 41/114/146 37/106/147 38/105/148
f 43/115/149 71/116/150 72/108/151 39/107/152
f 44/117/153 43/118/154 39/110/155 40/109/156
f 56/119/157 44/120/158 40/112/159 55/111/160
f 45/97/161 28/86/162 25/85/163 46/98/164
f 47/100/165 68/99/166 69/74/167 26/73/168
f 48/102/169 47/101/170 26/78/171 27/77/172
f 59/104/173 48/103/174 27/82/175 58/81/176
f 50/88/177 49/87/178 41/114/179 42/113/180
f 51/76/181 70/75/182 71/116/183 43/115/184
f 52/80/185 51/79/186 43/118/187 44/117/188
f 57/84/189 52/83/190 44/120/191 56/119/192
f 21/121/193 54/69/194 53/72/195 12/122/196
f 37/123/197 55/111/198 54/69/199 21/121/200
f 41/124/201 56/119/202 55/111/203 37/123/204
f 49/125/205 57/84/206 56/119/207 41/124/208
f 28/126/209 58/81/210 57/84/211 49/125/212
f 45/127/213 59/104/214 58/81/215 28/126/216
f 33/128/217 60/96/218 59/104/219 45/127/220
f 29/129/221 61/56/222 60/96/223 33/128/224
f 17/130/225 62/27/226 61/56/227 29/129/228
f 63/28/229 62/27/230 17/130/231 11/131/232
f 64/48/233 63/47/234 11/132/235 13/133/236
f 13/32/237 18/31/238 65/134/239 64/135/240
f 66/136/241 65/134/242 18/31/243 30/50/244
f 67/137/245 66/136/246 30/50/247 34/90/248
f 68/99/249 67/91/250 34/138/251 46/139/252
f 69/140/253 68/141/254 46/98/255 25/85/256
f 70/142/257 69/140/258 25/85/259 50/88/260
f 71/116/261 70/75/262 50/143/263 42/144/264
f 72/145/265 71/146/266 42/113/267 38/105/268
f 73/147/269 72/145/270 38/105/271 22/60/272
f 74/148/273 73/147/274 22/60/275 14/59/276
f 53/44/277 74/43/278 14/149/279 12/150/280
